<?xml version="1.0" standalone="no"?>
<!DOCTYPE svg PUBLIC "-//W3C//DTD SVG 20010904//EN"
 "http://www.w3.org/TR/2001/REC-SVG-20010904/DTD/svg10.dtd">
<svg version="1.0" xmlns="http://www.w3.org/2000/svg"
 width="201.000000pt" height="264.000000pt" viewBox="0 0 201.000000 264.000000"
 preserveAspectRatio="xMidYMid meet">

<g transform="translate(0.000000,264.000000) scale(0.100000,-0.100000)"
fill="#fc4508" stroke="none">
<path d="M960 2552 c-39 -19 -86 -83 -155 -214 -71 -135 -96 -217 -102 -333
-9 -179 30 -255 250 -483 178 -185 212 -243 210 -358 -2 -123 -66 -227 -174
-281 -132 -65 -307 -18 -388 104 -55 83 -61 121 -61 385 0 265 -4 284 -62 314
-46 24 -102 13 -145 -28 -46 -44 -136 -180 -172 -259 -133 -295 -109 -638 66
-902 26 -40 81 -106 122 -148 247 -246 592 -335 923 -238 439 129 718 551 668
1011 -33 302 -150 499 -470 793 -247 226 -319 333 -340 501 -11 88 -21 109
-63 134 -40 24 -62 25 -107 2z"/>
</g>
</svg>
